<svg width="221" height="31" viewBox="0 0 221 31" fill="none" xmlns="http://www.w3.org/2000/svg">
<path d="M12.68 4.11L8.18 12.75L5.81 11.46C6.01 11.38 6.22 11.32 6.44 11.28C6.68 11.24 6.9 11.22 7.1 11.22C7.8 11.2 8.5 11.28 9.2 11.46C9.9 11.64 10.53 11.96 11.09 12.42C11.67 12.88 12.13 13.51 12.47 14.31C12.83 15.11 13.01 16.13 13.01 17.37C13.01 18.81 12.67 20.05 11.99 21.09C11.33 22.11 10.46 22.89 9.38 23.43C8.3 23.97 7.13 24.24 5.87 24.24C4.89 24.24 3.86 24.04 2.78 23.64C1.7 23.22 0.84 22.67 0.2 21.99L2.42 18.39C2.72 18.77 3.18 19.14 3.8 19.5C4.42 19.86 5.07 20.04 5.75 20.04C6.19 20.04 6.62 19.93 7.04 19.71C7.46 19.49 7.81 19.16 8.09 18.72C8.37 18.28 8.51 17.74 8.51 17.1C8.51 16.22 8.26 15.52 7.76 15C7.28 14.48 6.6 14.22 5.72 14.22C5.12 14.22 4.66 14.25 4.34 14.31C4.04 14.35 3.74 14.41 3.44 14.49L3.35 14.37L6.86 7.8L8.12 8.31H1.85V4.11H12.68ZM17.6703 24V1.92H24.2703C26.4903 1.92 28.3803 2.25 29.9403 2.91C31.5003 3.57 32.7503 4.45 33.6903 5.55C34.6503 6.65 35.3503 7.88 35.7903 9.24C36.2303 10.6 36.4503 11.97 36.4503 13.35C36.4503 14.99 36.1503 16.47 35.5503 17.79C34.9703 19.09 34.1703 20.21 33.1503 21.15C32.1303 22.07 30.9503 22.78 29.6103 23.28C28.2703 23.76 26.8503 24 25.3503 24H17.6703ZM22.0203 19.8H24.6003C25.7003 19.8 26.7003 19.66 27.6003 19.38C28.5003 19.08 29.2703 18.65 29.9103 18.09C30.5703 17.53 31.0703 16.83 31.4103 15.99C31.7703 15.13 31.9503 14.15 31.9503 13.05C31.9503 11.61 31.7103 10.44 31.2303 9.54C30.7703 8.62 30.1903 7.91 29.4903 7.41C28.8103 6.91 28.1103 6.57 27.3903 6.39C26.6703 6.19 26.0603 6.09 25.5603 6.09H22.0203V19.8ZM52.6048 7.26C51.7648 6.8 50.9048 6.42 50.0248 6.12C49.1648 5.82 48.3548 5.67 47.5948 5.67C46.6548 5.67 45.9148 5.86 45.3748 6.24C44.8348 6.62 44.5648 7.19 44.5648 7.95C44.5648 8.47 44.7648 8.94 45.1648 9.36C45.5848 9.76 46.1148 10.12 46.7548 10.44C47.4148 10.76 48.0948 11.05 48.7948 11.31C49.4348 11.55 50.0648 11.84 50.6848 12.18C51.3248 12.5 51.8948 12.91 52.3948 13.41C52.8948 13.89 53.2948 14.5 53.5948 15.24C53.8948 15.96 54.0448 16.85 54.0448 17.91C54.0448 19.03 53.7548 20.07 53.1748 21.03C52.5948 21.99 51.7448 22.77 50.6248 23.37C49.5048 23.95 48.1248 24.24 46.4848 24.24C45.6448 24.24 44.7848 24.16 43.9048 24C43.0448 23.82 42.1948 23.56 41.3548 23.22C40.5148 22.86 39.7048 22.41 38.9248 21.87L40.8448 18.48C41.3648 18.86 41.9248 19.2 42.5248 19.5C43.1448 19.78 43.7648 20 44.3848 20.16C45.0048 20.32 45.5748 20.4 46.0948 20.4C46.6148 20.4 47.1348 20.33 47.6548 20.19C48.1948 20.03 48.6348 19.77 48.9748 19.41C49.3348 19.05 49.5148 18.55 49.5148 17.91C49.5148 17.47 49.3648 17.07 49.0648 16.71C48.7848 16.35 48.3948 16.02 47.8948 15.72C47.4148 15.42 46.8848 15.16 46.3048 14.94C45.6248 14.68 44.9248 14.38 44.2048 14.04C43.4848 13.7 42.8048 13.29 42.1648 12.81C41.5448 12.31 41.0348 11.7 40.6348 10.98C40.2548 10.24 40.0648 9.34 40.0648 8.28C40.0648 7 40.3448 5.89 40.9048 4.95C41.4848 4.01 42.2948 3.27 43.3348 2.73C44.3748 2.17 45.5748 1.86 46.9348 1.8C48.7148 1.8 50.1548 2.01 51.2548 2.43C52.3748 2.85 53.3748 3.35 54.2548 3.93L52.6048 7.26ZM64.0651 24.36C62.4651 24.36 61.1051 24.06 59.9851 23.46C58.8851 22.86 58.0451 22.03 57.4651 20.97C56.8851 19.91 56.5951 18.69 56.5951 17.31C56.5951 15.99 56.9351 14.8 57.6151 13.74C58.2951 12.68 59.2051 11.84 60.3451 11.22C61.4851 10.58 62.7551 10.26 64.1551 10.26C66.0351 10.26 67.5751 10.81 68.7751 11.91C69.9951 12.99 70.7851 14.56 71.1451 16.62L60.9451 19.86L60.0151 17.58L67.3951 15.09L66.5251 15.48C66.3651 14.96 66.0751 14.51 65.6551 14.13C65.2551 13.73 64.6451 13.53 63.8251 13.53C63.2051 13.53 62.6551 13.68 62.1751 13.98C61.7151 14.26 61.3551 14.67 61.0951 15.21C60.8551 15.73 60.7351 16.35 60.7351 17.07C60.7351 17.89 60.8851 18.58 61.1851 19.14C61.4851 19.68 61.8951 20.09 62.4151 20.37C62.9351 20.65 63.5151 20.79 64.1551 20.79C64.6151 20.79 65.0551 20.71 65.4751 20.55C65.9151 20.39 66.3451 20.18 66.7651 19.92L68.6251 23.04C67.9251 23.44 67.1651 23.76 66.3451 24C65.5451 24.24 64.7851 24.36 64.0651 24.36ZM75.4271 5.13H79.6271V10.83H82.8071V14.1H79.6271V24H75.4271V14.1H73.3871V10.83H75.4271V5.13ZM90.2338 24.63C89.0538 24.63 88.0638 24.27 87.2638 23.55C86.4638 22.81 86.0438 21.86 86.0038 20.7V10.89H90.2038V19.14C90.2438 19.72 90.3938 20.19 90.6538 20.55C90.9138 20.89 91.3538 21.06 91.9738 21.06C92.5938 21.06 93.1238 20.85 93.5638 20.43C94.0238 20.01 94.3738 19.44 94.6138 18.72C94.8738 17.98 95.0038 17.15 95.0038 16.23V10.89H99.2038V24H95.3938L95.0638 21.6L95.1238 21.87C94.8238 22.41 94.4438 22.89 93.9838 23.31C93.5238 23.73 92.9738 24.05 92.3338 24.27C91.7138 24.51 91.0138 24.63 90.2338 24.63ZM111.743 24.36C110.963 24.36 110.193 24.22 109.433 23.94C108.693 23.64 108.073 23.22 107.573 22.68L107.693 21.45V30.3H103.523V10.59H107.123L107.723 13.14L107.393 12.24C108.073 11.66 108.833 11.18 109.673 10.8C110.513 10.42 111.483 10.23 112.583 10.23C113.803 10.23 114.893 10.52 115.853 11.1C116.813 11.66 117.563 12.48 118.103 13.56C118.663 14.62 118.943 15.9 118.943 17.4C118.943 18.88 118.633 20.14 118.013 21.18C117.393 22.22 116.543 23.01 115.463 23.55C114.383 24.09 113.143 24.36 111.743 24.36ZM110.903 21.06C111.583 21.06 112.203 20.91 112.763 20.61C113.343 20.31 113.803 19.89 114.143 19.35C114.503 18.79 114.683 18.16 114.683 17.46C114.683 16.72 114.523 16.08 114.203 15.54C113.903 14.98 113.483 14.55 112.943 14.25C112.423 13.93 111.843 13.77 111.203 13.77C110.643 13.77 110.143 13.85 109.703 14.01C109.283 14.15 108.903 14.37 108.563 14.67C108.243 14.95 107.963 15.31 107.723 15.75V18.96C107.883 19.38 108.113 19.75 108.413 20.07C108.713 20.39 109.073 20.64 109.493 20.82C109.933 20.98 110.403 21.06 110.903 21.06ZM129.414 1.92C131.714 1.92 133.544 2.39 134.904 3.33C136.264 4.25 136.944 5.63 136.944 7.47C136.944 8.83 136.604 9.97 135.924 10.89C135.264 11.79 134.354 12.47 133.194 12.93C132.054 13.37 130.744 13.59 129.264 13.59L128.574 11.25C130.394 11.25 132.004 11.5 133.404 12C134.824 12.5 135.944 13.22 136.764 14.16C137.584 15.08 137.994 16.19 137.994 17.49C137.994 18.69 137.774 19.71 137.334 20.55C136.914 21.37 136.334 22.04 135.594 22.56C134.874 23.06 134.054 23.43 133.134 23.67C132.214 23.89 131.264 24 130.284 24H122.934V1.92H129.414ZM129.924 10.95C130.784 10.95 131.414 10.69 131.814 10.17C132.234 9.65 132.444 9.06 132.444 8.4C132.444 7.64 132.184 7.07 131.664 6.69C131.164 6.31 130.484 6.12 129.624 6.12H127.284V10.95H129.924ZM130.074 19.95C130.714 19.95 131.294 19.87 131.814 19.71C132.334 19.53 132.744 19.26 133.044 18.9C133.344 18.52 133.494 18.05 133.494 17.49C133.494 16.85 133.314 16.37 132.954 16.05C132.594 15.71 132.124 15.48 131.544 15.36C130.984 15.22 130.394 15.15 129.774 15.15H127.284V19.95H130.074ZM145.898 24.63C144.718 24.63 143.728 24.27 142.928 23.55C142.128 22.81 141.708 21.86 141.668 20.7V10.89H145.868V19.14C145.908 19.72 146.058 20.19 146.318 20.55C146.578 20.89 147.018 21.06 147.638 21.06C148.258 21.06 148.788 20.85 149.228 20.43C149.688 20.01 150.038 19.44 150.278 18.72C150.538 17.98 150.668 17.15 150.668 16.23V10.89H154.868V24H151.058L150.728 21.6L150.788 21.87C150.488 22.41 150.108 22.89 149.648 23.31C149.188 23.73 148.638 24.05 147.998 24.27C147.378 24.51 146.678 24.63 145.898 24.63ZM159.187 10.89H163.387V24H159.187V10.89ZM159.097 6.24C159.097 5.62 159.337 5.11 159.817 4.71C160.317 4.31 160.847 4.11 161.407 4.11C161.967 4.11 162.477 4.31 162.937 4.71C163.417 5.11 163.657 5.62 163.657 6.24C163.657 6.86 163.417 7.37 162.937 7.77C162.477 8.15 161.967 8.34 161.407 8.34C160.847 8.34 160.317 8.15 159.817 7.77C159.337 7.37 159.097 6.86 159.097 6.24ZM167.713 0.329999H171.913V24H167.713V0.329999ZM181.578 24.36C180.358 24.36 179.268 24.08 178.308 23.52C177.348 22.94 176.588 22.11 176.028 21.03C175.488 19.95 175.218 18.67 175.218 17.19C175.218 15.71 175.518 14.45 176.118 13.41C176.718 12.37 177.538 11.58 178.578 11.04C179.618 10.5 180.798 10.23 182.118 10.23C182.958 10.23 183.758 10.36 184.518 10.62C185.298 10.88 185.948 11.28 186.468 11.82V13.14V0.329999H190.638V24H186.438V21.45L186.768 22.35C186.088 22.91 185.328 23.39 184.488 23.79C183.648 24.17 182.678 24.36 181.578 24.36ZM182.958 20.82C183.518 20.82 184.008 20.75 184.428 20.61C184.868 20.45 185.248 20.23 185.568 19.95C185.908 19.65 186.198 19.28 186.438 18.84V15.63C186.278 15.19 186.028 14.82 185.688 14.52C185.368 14.2 184.968 13.96 184.488 13.8C184.028 13.62 183.518 13.53 182.958 13.53C182.338 13.53 181.758 13.69 181.218 14.01C180.698 14.31 180.278 14.73 179.958 15.27C179.638 15.81 179.478 16.43 179.478 17.13C179.478 17.83 179.638 18.46 179.958 19.02C180.278 19.58 180.698 20.02 181.218 20.34C181.758 20.66 182.338 20.82 182.958 20.82ZM201.409 24.36C199.809 24.36 198.449 24.06 197.329 23.46C196.229 22.86 195.389 22.03 194.809 20.97C194.229 19.91 193.939 18.69 193.939 17.31C193.939 15.99 194.279 14.8 194.959 13.74C195.639 12.68 196.549 11.84 197.689 11.22C198.829 10.58 200.099 10.26 201.499 10.26C203.379 10.26 204.919 10.81 206.119 11.91C207.339 12.99 208.129 14.56 208.489 16.62L198.289 19.86L197.359 17.58L204.739 15.09L203.869 15.48C203.709 14.96 203.419 14.51 202.999 14.13C202.599 13.73 201.989 13.53 201.169 13.53C200.549 13.53 199.999 13.68 199.519 13.98C199.059 14.26 198.699 14.67 198.439 15.21C198.199 15.73 198.079 16.35 198.079 17.07C198.079 17.89 198.229 18.58 198.529 19.14C198.829 19.68 199.239 20.09 199.759 20.37C200.279 20.65 200.859 20.79 201.499 20.79C201.959 20.79 202.399 20.71 202.819 20.55C203.259 20.39 203.689 20.18 204.109 19.92L205.969 23.04C205.269 23.44 204.509 23.76 203.689 24C202.889 24.24 202.129 24.36 201.409 24.36ZM215.321 10.89L215.711 14.49L215.621 13.95C216.001 13.17 216.521 12.51 217.181 11.97C217.841 11.41 218.491 10.98 219.131 10.68C219.791 10.38 220.291 10.23 220.631 10.23L220.421 14.43C219.441 14.31 218.601 14.47 217.901 14.91C217.201 15.35 216.661 15.93 216.281 16.65C215.901 17.37 215.711 18.11 215.711 18.87V24H211.541V10.89H215.321Z" fill="black"/>
</svg>
